<svg width="170" height="50" viewBox="0 0 170 50" fill="none" xmlns="http://www.w3.org/2000/svg">
<path d="M0 50V12.4312H5.3493C5.88795 12.4312 6.33372 12.5504 6.68663 12.7888C7.05811 13.0271 7.31814 13.3847 7.46673 13.8614L8.10753 15.9516C8.66475 15.3465 9.25912 14.7965 9.89063 14.3014C10.5407 13.8064 11.228 13.3847 11.9523 13.0363C12.6953 12.6696 13.4847 12.3854 14.3205 12.1837C15.1749 11.982 16.1036 11.8812 17.1066 11.8812C18.6111 11.8812 20.0042 12.2112 21.2858 12.8713C22.5674 13.5314 23.6725 14.4848 24.6012 15.7316C25.5299 16.9784 26.2543 18.5093 26.7744 20.3245C27.313 22.1214 27.5823 24.1657 27.5823 26.4576C27.5823 28.6029 27.2759 30.5831 26.6629 32.3982C26.0686 34.2134 25.2234 35.7902 24.1276 37.1287C23.0503 38.4672 21.7501 39.5123 20.227 40.264C18.7226 41.0158 17.0509 41.3916 15.2121 41.3916C13.7076 41.3916 12.4446 41.1808 11.423 40.7591C10.4014 40.3374 9.47272 39.769 8.63689 39.0539V50H0ZM14.0976 18.3993C13.4661 18.3993 12.8903 18.4635 12.3703 18.5919C11.8688 18.7019 11.3951 18.8669 10.9494 19.0869C10.5221 19.3069 10.1228 19.5911 9.75133 19.9395C9.37985 20.2695 9.00837 20.6546 8.63689 21.0946V33.1958C9.28698 33.9109 9.99279 34.4151 10.7543 34.7085C11.5159 34.9835 12.3145 35.121 13.1504 35.121C13.949 35.121 14.6827 34.9652 15.3514 34.6535C16.02 34.3418 16.5958 33.8467 17.0788 33.1683C17.5803 32.4716 17.9703 31.5732 18.2489 30.473C18.5275 29.3729 18.6668 28.0345 18.6668 26.4576C18.6668 24.9542 18.5554 23.689 18.3325 22.6623C18.1096 21.6355 17.7939 20.8104 17.3852 20.187C16.9952 19.5453 16.5215 19.0869 15.9643 18.8119C15.4071 18.5369 14.7849 18.3993 14.0976 18.3993Z" fill="white"/>
<path d="M52.1627 40.9516C51.3454 40.9516 50.7232 40.8416 50.296 40.6216C49.8873 40.4015 49.5437 39.9432 49.2651 39.2464L48.6522 37.6788C47.9278 38.2838 47.2313 38.8155 46.5626 39.2739C45.8939 39.7323 45.1974 40.1265 44.473 40.4565C43.7672 40.7682 43.0057 40.9974 42.1884 41.1441C41.3898 41.3091 40.4982 41.3916 39.5138 41.3916C38.195 41.3916 36.997 41.2266 35.9197 40.8966C34.8424 40.5482 33.923 40.044 33.1615 39.3839C32.4185 38.7239 31.8427 37.908 31.4341 36.9362C31.0255 35.9461 30.8212 34.8093 30.8212 33.5259C30.8212 32.5174 31.0812 31.4815 31.6013 30.418C32.1213 29.3546 33.0222 28.392 34.3038 27.5303C35.5854 26.6502 37.3128 25.9168 39.4859 25.33C41.6591 24.7433 44.3987 24.4133 47.7049 24.3399V23.1298C47.7049 21.4613 47.352 20.2604 46.6462 19.527C45.9589 18.7752 44.9745 18.3993 43.6929 18.3993C42.6714 18.3993 41.8355 18.5094 41.1854 18.7294C40.5353 18.9494 39.9503 19.1969 39.4302 19.4719C38.9287 19.747 38.4365 19.9945 37.9536 20.2145C37.4706 20.4345 36.8949 20.5446 36.2262 20.5446C35.6318 20.5446 35.121 20.407 34.6938 20.132C34.2852 19.8386 33.9602 19.4811 33.7187 19.0594L32.1585 16.3916C33.9044 14.8698 35.8361 13.7422 37.9536 13.0088C40.0896 12.2571 42.3742 11.8812 44.8074 11.8812C46.5533 11.8812 48.1228 12.1654 49.5159 12.7338C50.9275 13.2838 52.1162 14.0631 53.0821 15.0715C54.0665 16.0616 54.8187 17.2442 55.3388 18.6194C55.8589 19.9945 56.1189 21.498 56.1189 23.1298V40.9516H52.1627ZM42.2442 35.7536C43.3586 35.7536 44.3337 35.5611 45.1696 35.176C46.0054 34.791 46.8505 34.1676 47.7049 33.3058V29.3454C45.9775 29.4188 44.5566 29.5655 43.4422 29.7855C42.3277 30.0055 41.4455 30.2805 40.7954 30.6106C40.1453 30.9406 39.6902 31.3165 39.4302 31.7382C39.1887 32.1599 39.068 32.6183 39.068 33.1133C39.068 34.0851 39.3373 34.7726 39.876 35.176C40.4146 35.5611 41.204 35.7536 42.2442 35.7536Z" fill="white"/>
<path d="M72.9765 48.3498C72.7165 48.9182 72.4007 49.3308 72.0292 49.5875C71.6578 49.8625 71.0634 50 70.2461 50H63.7824L69.3546 38.4488L57.8202 12.4312H65.4541C66.1227 12.4312 66.6428 12.5779 67.0143 12.8713C67.3858 13.1647 67.6458 13.513 67.7944 13.9164L72.5307 26.2101C72.9765 27.3469 73.3387 28.4837 73.6173 29.6205C73.8031 29.0337 74.0074 28.4562 74.2303 27.8878C74.4531 27.3194 74.6667 26.7418 74.8711 26.1551L79.1616 13.9164C79.3102 13.4947 79.5981 13.1463 80.0253 12.8713C80.4711 12.5779 80.9447 12.4312 81.4462 12.4312H88.4115L72.9765 48.3498Z" fill="white"/>
<path d="M93.2445 40.9516V18.2893L91.3499 17.9043C90.6998 17.7576 90.1705 17.5284 89.7619 17.2167C89.3718 16.905 89.1768 16.4466 89.1768 15.8416V12.4862H93.2445V11.4961C93.2445 10.0477 93.4859 8.63586 93.9689 7.26073C94.4518 5.86725 95.1947 4.6388 96.1977 3.57536C97.2007 2.49358 98.4823 1.63183 100.043 0.990099C101.603 0.330033 103.46 0 105.615 0C107.435 0 109.144 0.0550059 110.741 0.165018C112.357 0.275027 113.992 0.330032 115.645 0.330032H120.492V40.9516H111.911V6.05061C110.964 6.01394 110.045 5.97727 109.153 5.9406C108.28 5.88559 107.565 5.85809 107.008 5.85809C105.243 5.85809 103.897 6.34397 102.968 7.31573C102.058 8.26916 101.603 9.66263 101.603 11.4961V12.4862H107.844V18.3168H101.881V40.9516H93.2445Z" fill="white"/>
<path d="M140.368 11.9912C142.56 11.9912 144.557 12.3304 146.358 13.0088C148.16 13.6872 149.702 14.659 150.983 15.9241C152.283 17.1892 153.286 18.7294 153.992 20.5446C154.717 22.3414 155.079 24.3674 155.079 26.6227C155.079 28.8962 154.717 30.9498 153.992 32.7833C153.286 34.5985 152.283 36.1478 150.983 37.4312C149.702 38.6964 148.16 39.6773 146.358 40.374C144.557 41.0524 142.56 41.3916 140.368 41.3916C138.158 41.3916 136.143 41.0524 134.322 40.374C132.521 39.6773 130.961 38.6964 129.642 37.4312C128.342 36.1478 127.329 34.5985 126.605 32.7833C125.899 30.9498 125.546 28.8962 125.546 26.6227C125.546 24.3674 125.899 22.3414 126.605 20.5446C127.329 18.7294 128.342 17.1892 129.642 15.9241C130.961 14.659 132.521 13.6872 134.322 13.0088C136.143 12.3304 138.158 11.9912 140.368 11.9912ZM140.368 35.066C142.356 35.066 143.814 34.3784 144.742 33.0033C145.69 31.6098 146.163 29.5013 146.163 26.6777C146.163 23.8541 145.69 21.7547 144.742 20.3795C143.814 19.0044 142.356 18.3168 140.368 18.3168C138.325 18.3168 136.83 19.0044 135.883 20.3795C134.935 21.7547 134.462 23.8541 134.462 26.6777C134.462 29.5013 134.935 31.6098 135.883 33.0033C136.83 34.3784 138.325 35.066 140.368 35.066Z" fill="white"/>
<path d="M159.179 34.0759L170 14.0024L148.18 8.63154C153.325 11.4207 157.459 16.3764 159.179 22.6164C160.202 26.3397 159.957 30.651 159.179 34.0759Z" fill="#03FF82"/>
<path d="M136.453 4.39802L135.961 4.28126L136.03 4.42397C136.18 4.42397 136.303 4.39802 136.453 4.39802Z" fill="#03FF82"/>
</svg>
