<svg width="170" height="51" viewBox="0 0 170 51" fill="none" xmlns="http://www.w3.org/2000/svg">
<path d="M0 51V12.6799H5.3493C5.88795 12.6799 6.33372 12.8014 6.68663 13.0446C7.05811 13.2877 7.31814 13.6524 7.46673 14.1386L8.10753 16.2706C8.66475 15.6535 9.25912 15.0924 9.89063 14.5875C10.5407 14.0825 11.228 13.6524 11.9523 13.297C12.6953 12.923 13.4847 12.6331 14.3205 12.4274C15.1749 12.2217 16.1036 12.1188 17.1066 12.1188C18.6111 12.1188 20.0042 12.4554 21.2858 13.1287C22.5674 13.802 23.6725 14.7745 24.6012 16.0462C25.5299 17.3179 26.2543 18.8795 26.7744 20.731C27.313 22.5638 27.5823 24.6491 27.5823 26.9868C27.5823 29.1749 27.2759 31.1947 26.6629 33.0462C26.0686 34.8977 25.2234 36.506 24.1276 37.8713C23.0503 39.2365 21.7501 40.3025 20.227 41.0693C18.7226 41.8361 17.0509 42.2195 15.2121 42.2195C13.7076 42.2195 12.4446 42.0044 11.423 41.5743C10.4014 41.1441 9.47272 40.5644 8.63689 39.835V51H0ZM14.0976 18.7673C13.4661 18.7673 12.8903 18.8328 12.3703 18.9637C11.8688 19.0759 11.3951 19.2442 10.9494 19.4686C10.5221 19.6931 10.1228 19.9829 9.75133 20.3383C9.37985 20.6749 9.00837 21.0677 8.63689 21.5165V33.8597C9.28698 34.5891 9.99279 35.1034 10.7543 35.4026C11.5159 35.6832 12.3145 35.8234 13.1504 35.8234C13.949 35.8234 14.6827 35.6645 15.3514 35.3465C16.02 35.0286 16.5958 34.5237 17.0788 33.8317C17.5803 33.121 17.9703 32.2046 18.2489 31.0825C18.5275 29.9604 18.6668 28.5952 18.6668 26.9868C18.6668 25.4532 18.5554 24.1628 18.3325 23.1155C18.1096 22.0682 17.7939 21.2266 17.3852 20.5908C16.9952 19.9362 16.5215 19.4686 15.9643 19.1881C15.4071 18.9076 14.7849 18.7673 14.0976 18.7673Z" fill="black"/>
<path d="M52.1627 41.7706C51.3454 41.7706 50.7232 41.6584 50.296 41.434C49.8873 41.2096 49.5437 40.742 49.2651 40.0313L48.6522 38.4323C47.9278 39.0495 47.2313 39.5919 46.5626 40.0594C45.8939 40.527 45.1974 40.929 44.473 41.2657C43.7672 41.5836 43.0057 41.8174 42.1884 41.967C41.3898 42.1353 40.4982 42.2195 39.5138 42.2195C38.195 42.2195 36.997 42.0512 35.9197 41.7145C34.8424 41.3592 33.923 40.8449 33.1615 40.1716C32.4185 39.4983 31.8427 38.6661 31.4341 37.6749C31.0255 36.665 30.8212 35.5055 30.8212 34.1964C30.8212 33.1678 31.0812 32.1111 31.6013 31.0264C32.1213 29.9417 33.0222 28.9598 34.3038 28.0809C35.5854 27.1832 37.3128 26.4351 39.4859 25.8366C41.6591 25.2382 44.3987 24.9015 47.7049 24.8267V23.5924C47.7049 21.8905 47.352 20.6656 46.6462 19.9175C45.9589 19.1507 44.9745 18.7673 43.6929 18.7673C42.6714 18.7673 41.8355 18.8795 41.1854 19.104C40.5353 19.3284 39.9503 19.5809 39.4302 19.8614C38.9287 20.1419 38.4365 20.3944 37.9536 20.6188C37.4706 20.8432 36.8949 20.9554 36.2262 20.9554C35.6318 20.9554 35.121 20.8152 34.6938 20.5347C34.2852 20.2354 33.9602 19.8707 33.7187 19.4406L32.1585 16.7195C33.9044 15.1672 35.8361 14.0171 37.9536 13.269C40.0896 12.5022 42.3742 12.1188 44.8074 12.1188C46.5533 12.1188 48.1228 12.4087 49.5159 12.9884C50.9275 13.5495 52.1162 14.3443 53.0821 15.3729C54.0665 16.3828 54.8187 17.5891 55.3388 18.9917C55.8589 20.3944 56.1189 21.9279 56.1189 23.5924V41.7706H52.1627ZM42.2442 36.4686C43.3586 36.4686 44.3337 36.2723 45.1696 35.8795C46.0054 35.4868 46.8505 34.8509 47.7049 33.9719V29.9323C45.9775 30.0071 44.5566 30.1568 43.4422 30.3812C42.3277 30.6056 41.4455 30.8861 40.7954 31.2228C40.1453 31.5594 39.6902 31.9428 39.4302 32.3729C39.1887 32.8031 39.068 33.2706 39.068 33.7756C39.068 34.7668 39.3373 35.4681 39.876 35.8795C40.4146 36.2723 41.204 36.4686 42.2442 36.4686Z" fill="black"/>
<path d="M72.9765 49.3168C72.7165 49.8966 72.4007 50.3174 72.0292 50.5792C71.6578 50.8597 71.0634 51 70.2461 51H63.7824L69.3546 39.2178L57.8202 12.6799H65.4541C66.1227 12.6799 66.6428 12.8295 67.0143 13.1287C67.3858 13.4279 67.6458 13.7833 67.7944 14.1947L72.5307 26.7343C72.9765 27.8938 73.3387 29.0534 73.6173 30.2129C73.8031 29.6144 74.0074 29.0253 74.2303 28.4455C74.4531 27.8658 74.6667 27.2767 74.8711 26.6782L79.1616 14.1947C79.3102 13.7646 79.5981 13.4092 80.0253 13.1287C80.4711 12.8295 80.9447 12.6799 81.4462 12.6799H88.4115L72.9765 49.3168Z" fill="black"/>
<path d="M93.2445 41.7706V18.6551L91.3499 18.2624C90.6998 18.1128 90.1705 17.879 89.7619 17.5611C89.3718 17.2431 89.1768 16.7756 89.1768 16.1584V12.736H93.2445V11.7261C93.2445 10.2486 93.4859 8.80858 93.9689 7.40594C94.4518 5.9846 95.1947 4.73157 96.1977 3.64686C97.2007 2.54345 98.4823 1.66447 100.043 1.0099C101.603 0.336634 103.46 0 105.615 0C107.435 0 109.144 0.056106 110.741 0.168318C112.357 0.280528 113.992 0.336633 115.645 0.336633H120.492V41.7706H111.911V6.17162C110.964 6.13421 110.045 6.09681 109.153 6.05941C108.28 6.0033 107.565 5.97525 107.008 5.97525C105.243 5.97525 103.897 6.47085 102.968 7.46205C102.058 8.43454 101.603 9.85589 101.603 11.7261V12.736H107.844V18.6832H101.881V41.7706H93.2445Z" fill="black"/>
<path d="M140.368 12.231C142.56 12.231 144.557 12.577 146.358 13.269C148.16 13.9609 149.702 14.9521 150.983 16.2426C152.283 17.533 153.286 19.104 153.992 20.9554C154.717 22.7882 155.079 24.8548 155.079 27.1551C155.079 29.4741 154.717 31.5688 153.992 33.4389C153.286 35.2904 152.283 36.8707 150.983 38.1799C149.702 39.4703 148.16 40.4708 146.358 41.1815C144.557 41.8735 142.56 42.2195 140.368 42.2195C138.158 42.2195 136.143 41.8735 134.322 41.1815C132.521 40.4708 130.961 39.4703 129.642 38.1799C128.342 36.8707 127.329 35.2904 126.605 33.4389C125.899 31.5688 125.546 29.4741 125.546 27.1551C125.546 24.8548 125.899 22.7882 126.605 20.9554C127.329 19.104 128.342 17.533 129.642 16.2426C130.961 14.9521 132.521 13.9609 134.322 13.269C136.143 12.577 138.158 12.231 140.368 12.231ZM140.368 35.7673C142.356 35.7673 143.814 35.066 144.742 33.6634C145.69 32.242 146.163 30.0913 146.163 27.2112C146.163 24.3311 145.69 22.1898 144.742 20.7871C143.814 19.3845 142.356 18.6832 140.368 18.6832C138.325 18.6832 136.83 19.3845 135.883 20.7871C134.935 22.1898 134.462 24.3311 134.462 27.2112C134.462 30.0913 134.935 32.242 135.883 33.6634C136.83 35.066 138.325 35.7673 140.368 35.7673Z" fill="black"/>
<path d="M159.179 34.7574L170 14.2824L148.18 8.80417C153.325 11.6491 157.459 16.7039 159.179 23.0688C160.202 26.8665 159.957 31.2641 159.179 34.7574Z" fill="#03FF82"/>
<path d="M136.453 4.48598L135.961 4.36689L136.03 4.51245C136.18 4.51245 136.303 4.48598 136.453 4.48598Z" fill="#03FF82"/>
</svg>
